<svg id="wave" style="transform:rotate(180deg); transition: 0.3s" viewBox="0 0 1440 490" version="1.1" xmlns="http://www.w3.org/2000/svg"><defs><linearGradient id="sw-gradient-0" x1="0" x2="0" y1="1" y2="0"><stop stop-color="rgba(22, 33, 49, 1)" offset="0%"></stop><stop stop-color="rgba(112, 200, 255, 1)" offset="100%"></stop></linearGradient></defs><path style="transform:translate(0, 0px); opacity:1" fill="url(#sw-gradient-0)" d="M0,98L48,114.3C96,131,192,163,288,179.7C384,196,480,196,576,179.7C672,163,768,131,864,138.8C960,147,1056,196,1152,228.7C1248,261,1344,278,1440,261.3C1536,245,1632,196,1728,179.7C1824,163,1920,180,2016,212.3C2112,245,2208,294,2304,318.5C2400,343,2496,343,2592,318.5C2688,294,2784,245,2880,187.8C2976,131,3072,65,3168,49C3264,33,3360,65,3456,138.8C3552,212,3648,327,3744,351.2C3840,376,3936,310,4032,294C4128,278,4224,310,4320,294C4416,278,4512,212,4608,171.5C4704,131,4800,114,4896,98C4992,82,5088,65,5184,65.3C5280,65,5376,82,5472,114.3C5568,147,5664,196,5760,253.2C5856,310,5952,376,6048,408.3C6144,441,6240,441,6336,441C6432,441,6528,441,6624,408.3C6720,376,6816,310,6864,277.7L6912,245L6912,490L6864,490C6816,490,6720,490,6624,490C6528,490,6432,490,6336,490C6240,490,6144,490,6048,490C5952,490,5856,490,5760,490C5664,490,5568,490,5472,490C5376,490,5280,490,5184,490C5088,490,4992,490,4896,490C4800,490,4704,490,4608,490C4512,490,4416,490,4320,490C4224,490,4128,490,4032,490C3936,490,3840,490,3744,490C3648,490,3552,490,3456,490C3360,490,3264,490,3168,490C3072,490,2976,490,2880,490C2784,490,2688,490,2592,490C2496,490,2400,490,2304,490C2208,490,2112,490,2016,490C1920,490,1824,490,1728,490C1632,490,1536,490,1440,490C1344,490,1248,490,1152,490C1056,490,960,490,864,490C768,490,672,490,576,490C480,490,384,490,288,490C192,490,96,490,48,490L0,490Z"></path><defs><linearGradient id="sw-gradient-1" x1="0" x2="0" y1="1" y2="0"><stop stop-color="rgba(22, 33, 49, 1)" offset="0%"></stop><stop stop-color="rgba(112, 200, 255, 1)" offset="100%"></stop></linearGradient></defs><path style="transform:translate(0, 50px); opacity:0.9" fill="url(#sw-gradient-1)" d="M0,441L48,416.5C96,392,192,343,288,302.2C384,261,480,229,576,228.7C672,229,768,261,864,228.7C960,196,1056,98,1152,65.3C1248,33,1344,65,1440,89.8C1536,114,1632,131,1728,171.5C1824,212,1920,278,2016,261.3C2112,245,2208,147,2304,147C2400,147,2496,245,2592,253.2C2688,261,2784,180,2880,179.7C2976,180,3072,261,3168,285.8C3264,310,3360,278,3456,253.2C3552,229,3648,212,3744,187.8C3840,163,3936,131,4032,155.2C4128,180,4224,261,4320,318.5C4416,376,4512,408,4608,424.7C4704,441,4800,441,4896,424.7C4992,408,5088,376,5184,367.5C5280,359,5376,376,5472,383.8C5568,392,5664,392,5760,383.8C5856,376,5952,359,6048,310.3C6144,261,6240,180,6336,122.5C6432,65,6528,33,6624,57.2C6720,82,6816,163,6864,204.2L6912,245L6912,490L6864,490C6816,490,6720,490,6624,490C6528,490,6432,490,6336,490C6240,490,6144,490,6048,490C5952,490,5856,490,5760,490C5664,490,5568,490,5472,490C5376,490,5280,490,5184,490C5088,490,4992,490,4896,490C4800,490,4704,490,4608,490C4512,490,4416,490,4320,490C4224,490,4128,490,4032,490C3936,490,3840,490,3744,490C3648,490,3552,490,3456,490C3360,490,3264,490,3168,490C3072,490,2976,490,2880,490C2784,490,2688,490,2592,490C2496,490,2400,490,2304,490C2208,490,2112,490,2016,490C1920,490,1824,490,1728,490C1632,490,1536,490,1440,490C1344,490,1248,490,1152,490C1056,490,960,490,864,490C768,490,672,490,576,490C480,490,384,490,288,490C192,490,96,490,48,490L0,490Z"></path><defs><linearGradient id="sw-gradient-2" x1="0" x2="0" y1="1" y2="0"><stop stop-color="rgba(22, 33, 49, 1)" offset="0%"></stop><stop stop-color="rgba(112, 200, 255, 1)" offset="100%"></stop></linearGradient></defs><path style="transform:translate(0, 100px); opacity:0.8" fill="url(#sw-gradient-2)" d="M0,245L48,236.8C96,229,192,212,288,212.3C384,212,480,229,576,269.5C672,310,768,376,864,392C960,408,1056,376,1152,359.3C1248,343,1344,343,1440,326.7C1536,310,1632,278,1728,228.7C1824,180,1920,114,2016,122.5C2112,131,2208,212,2304,269.5C2400,327,2496,359,2592,351.2C2688,343,2784,294,2880,245C2976,196,3072,147,3168,106.2C3264,65,3360,33,3456,81.7C3552,131,3648,261,3744,334.8C3840,408,3936,425,4032,408.3C4128,392,4224,343,4320,318.5C4416,294,4512,294,4608,285.8C4704,278,4800,261,4896,277.7C4992,294,5088,343,5184,351.2C5280,359,5376,327,5472,318.5C5568,310,5664,327,5760,302.2C5856,278,5952,212,6048,204.2C6144,196,6240,245,6336,261.3C6432,278,6528,261,6624,212.3C6720,163,6816,82,6864,40.8L6912,0L6912,490L6864,490C6816,490,6720,490,6624,490C6528,490,6432,490,6336,490C6240,490,6144,490,6048,490C5952,490,5856,490,5760,490C5664,490,5568,490,5472,490C5376,490,5280,490,5184,490C5088,490,4992,490,4896,490C4800,490,4704,490,4608,490C4512,490,4416,490,4320,490C4224,490,4128,490,4032,490C3936,490,3840,490,3744,490C3648,490,3552,490,3456,490C3360,490,3264,490,3168,490C3072,490,2976,490,2880,490C2784,490,2688,490,2592,490C2496,490,2400,490,2304,490C2208,490,2112,490,2016,490C1920,490,1824,490,1728,490C1632,490,1536,490,1440,490C1344,490,1248,490,1152,490C1056,490,960,490,864,490C768,490,672,490,576,490C480,490,384,490,288,490C192,490,96,490,48,490L0,490Z"></path><defs><linearGradient id="sw-gradient-3" x1="0" x2="0" y1="1" y2="0"><stop stop-color="rgba(22, 33, 49, 1)" offset="0%"></stop><stop stop-color="rgba(112, 200, 255, 1)" offset="100%"></stop></linearGradient></defs><path style="transform:translate(0, 150px); opacity:0.7" fill="url(#sw-gradient-3)" d="M0,343L48,302.2C96,261,192,180,288,155.2C384,131,480,163,576,204.2C672,245,768,294,864,277.7C960,261,1056,180,1152,171.5C1248,163,1344,229,1440,261.3C1536,294,1632,294,1728,294C1824,294,1920,294,2016,269.5C2112,245,2208,196,2304,196C2400,196,2496,245,2592,285.8C2688,327,2784,359,2880,375.7C2976,392,3072,392,3168,367.5C3264,343,3360,294,3456,253.2C3552,212,3648,180,3744,196C3840,212,3936,278,4032,302.2C4128,327,4224,310,4320,277.7C4416,245,4512,196,4608,155.2C4704,114,4800,82,4896,130.7C4992,180,5088,310,5184,351.2C5280,392,5376,343,5472,302.2C5568,261,5664,229,5760,196C5856,163,5952,131,6048,106.2C6144,82,6240,65,6336,73.5C6432,82,6528,114,6624,130.7C6720,147,6816,147,6864,147L6912,147L6912,490L6864,490C6816,490,6720,490,6624,490C6528,490,6432,490,6336,490C6240,490,6144,490,6048,490C5952,490,5856,490,5760,490C5664,490,5568,490,5472,490C5376,490,5280,490,5184,490C5088,490,4992,490,4896,490C4800,490,4704,490,4608,490C4512,490,4416,490,4320,490C4224,490,4128,490,4032,490C3936,490,3840,490,3744,490C3648,490,3552,490,3456,490C3360,490,3264,490,3168,490C3072,490,2976,490,2880,490C2784,490,2688,490,2592,490C2496,490,2400,490,2304,490C2208,490,2112,490,2016,490C1920,490,1824,490,1728,490C1632,490,1536,490,1440,490C1344,490,1248,490,1152,490C1056,490,960,490,864,490C768,490,672,490,576,490C480,490,384,490,288,490C192,490,96,490,48,490L0,490Z"></path></svg>